<svg xmlns="http://www.w3.org/2000/svg" viewBox="0 0 1000 1000" width="1000" height="1000"><title>Clairen Haus favicon</title><rect width="1000" height="1000" rx="223.7" fill="#C79AA1"/><path fill="#FFFFFF" d="M505.51 684.07C505.51 731.76 505.51 779.46 505.51 827.15C505.51 836.26 502.58 841.97 496.65 848.78C495.62 849.97 494.18 851.05 493.45 852.46C492.77 853.78 492.71 855.39 493.3 856.73C494.03 858.44 495.64 859.56 497.46 859.78C501.3 860.26 571.75 859.83 572.59 859.61C575.54 858.7 577.03 855.21 575.61 852.46C574.98 851.23 573.77 850.27 572.84 849.26C569.03 845.04 565.6 840.17 564.18 834.62C562.82 829.07 563.55 772.59 563.55 762.12C563.55 732.62 563.55 703.12 563.55 673.62C563.55 668.39 564.03 645.68 563.45 642.38C563.1 640.31 561.41 638.99 559.51 638.44C576.6 623.15 593.61 607.78 610.72 592.54C653.74 554.2 719.71 495.98 780.58 497.42C780.58 603.31 780.58 709.18 780.58 815.04C780.58 820.46 781.16 827.68 780.3 832.91C778.54 843.48 768.64 850.57 768.04 853.85C767.78 855.29 768.19 856.88 769.12 857.99C769.98 859 771.22 859.63 772.53 859.78C776.09 860.21 779.97 859.81 783.58 859.81C792.87 859.81 802.18 859.81 811.49 859.81C820.81 859.81 830.12 859.81 839.4 859.81C843.01 859.81 846.9 860.21 850.46 859.78C853.91 859.35 856.08 855.62 854.47 852.46C853.49 850.55 851.39 848.98 850 847.32C848.08 845.04 846.37 842.55 845.03 839.9C843.69 837.2 842.73 834.22 842.48 831.22C841.98 825.13 842.41 818.88 842.41 812.77C842.41 799.65 842.41 786.55 842.41 773.43C842.41 731.05 842.41 688.68 842.41 646.31C842.41 551.48 842.41 456.64 842.41 361.8C842.41 357.72 841.85 350.02 842.71 346.36C844.02 340.81 848.87 336.47 853.18 333.11C854.29 332.25 855.68 331.5 856.54 330.36C857.83 328.67 857.88 326.2 856.64 324.46C855.81 323.24 854.44 322.49 852.98 322.31C850.05 321.96 784.42 322.08 782.62 322.39C781.66 322.54 780.78 323.07 780.07 323.75C777.45 326.32 779.04 330.26 779.49 333.39C780.81 342.45 780.55 351.56 780.58 360.67C780.58 369.75 780.58 378.81 780.58 387.9C780.58 418.89 780.58 449.88 780.58 480.87C722.59 476.1 660.66 512.08 616.27 546.18C597.87 560.31 580.59 575.7 563.55 591.45C563.55 553.37 563.55 515.29 563.55 477.21C563.55 464.84 563.55 452.48 563.55 440.14C563.55 434.08 563.78 428 563.55 421.97C563.5 420.96 563.25 420.02 562.69 419.17C561.91 417.9 560.45 417.12 559.01 416.95C555.05 416.47 543.72 416.92 539 416.92C526.96 416.92 513.31 416.47 501.47 416.92C500.82 416.95 500.16 417.05 499.55 417.3C498.19 417.85 497.13 419.04 496.68 420.43C494.68 426.69 505.51 427.95 505.51 438.75C505.51 466.74 505.51 494.75 505.51 522.73C505.51 551.5 505.51 580.25 505.51 608.99C505.51 613.81 505.03 635.79 505.61 638.72C506.04 640.94 507.68 642.1 509.7 642.73C493.37 657.87 476.82 672.76 459.13 686.31C415.92 719.47 361.64 748.95 305.31 743.09C292.9 741.81 280.68 739.16 269.1 734.46C233.77 720.08 207.5 688.33 194.66 653C175.07 599.25 176.46 519.78 186.45 463.81C191.65 434.56 199.73 405.79 210.63 378.13C233.52 320.12 269.08 266.21 315.76 224.6C347.79 196.06 386.02 173.04 429.37 168.25C471.84 163.58 520.65 182.05 546.21 217.05C556.01 230.48 568.07 261.29 573.72 277.57C575.11 281.58 576.07 285.77 577.51 289.73C577.89 290.79 578.67 291.73 579.63 292.28C583.36 294.53 589.52 289.98 592.75 288.12C604.31 281.48 613.17 270.05 618.57 257.96C622.63 248.82 624.5 238.58 622.81 228.66C618.57 203.73 588.56 175.19 567.72 162.49C558.03 156.61 547.53 152.02 536.73 148.61C510.2 140.26 481.94 138.59 454.36 141.02C384.96 147.1 321.49 183.87 268.77 227.42C179.03 301.59 113.6 410.31 110.67 528.71C109.86 560.49 113.57 592.59 122.48 623.15C137.09 673.14 165.51 715.86 210.1 743.82C255.6 772.34 309.2 777.01 360.58 763.53C414.36 749.43 462.1 717.81 505.51 684.07Z"/></svg>